<mxfile host="app.diagrams.net" modified="2020-10-04T02:09:45.771Z" agent="5.0 (Windows NT 10.0; Win64; x64) AppleWebKit/537.36 (KHTML, like Gecko) Chrome/85.0.4183.102 Safari/537.36" etag="brVElj4duqL7zFxEwwv-" version="13.7.7" type="github" pages="2">
  <diagram id="jmghNwssyLH3pHcshSl-" name="Page-1">
    <mxGraphModel dx="1248" dy="713" grid="1" gridSize="10" guides="1" tooltips="1" connect="1" arrows="1" fold="1" page="1" pageScale="1" pageWidth="827" pageHeight="1169" math="0" shadow="0">
      <root>
        <mxCell id="0" />
        <mxCell id="1" parent="0" />
        <mxCell id="nFDP5_dd2hBPUxauLIHV-8" style="edgeStyle=orthogonalEdgeStyle;rounded=0;orthogonalLoop=1;jettySize=auto;html=1;entryX=0;entryY=0.5;entryDx=0;entryDy=0;" parent="1" source="nFDP5_dd2hBPUxauLIHV-2" target="nFDP5_dd2hBPUxauLIHV-3" edge="1">
          <mxGeometry relative="1" as="geometry" />
        </mxCell>
        <mxCell id="nFDP5_dd2hBPUxauLIHV-2" value="交易" style="ellipse;whiteSpace=wrap;html=1;aspect=fixed;" parent="1" vertex="1">
          <mxGeometry x="160" y="80" width="40" height="40" as="geometry" />
        </mxCell>
        <mxCell id="nFDP5_dd2hBPUxauLIHV-9" style="edgeStyle=orthogonalEdgeStyle;rounded=0;orthogonalLoop=1;jettySize=auto;html=1;exitX=1;exitY=0.5;exitDx=0;exitDy=0;entryX=0;entryY=0.5;entryDx=0;entryDy=0;" parent="1" source="nFDP5_dd2hBPUxauLIHV-3" target="nFDP5_dd2hBPUxauLIHV-4" edge="1">
          <mxGeometry relative="1" as="geometry" />
        </mxCell>
        <mxCell id="nFDP5_dd2hBPUxauLIHV-3" value="交易" style="ellipse;whiteSpace=wrap;html=1;aspect=fixed;" parent="1" vertex="1">
          <mxGeometry x="280" y="80" width="40" height="40" as="geometry" />
        </mxCell>
        <mxCell id="nFDP5_dd2hBPUxauLIHV-10" style="edgeStyle=orthogonalEdgeStyle;rounded=0;orthogonalLoop=1;jettySize=auto;html=1;exitX=1;exitY=0.5;exitDx=0;exitDy=0;entryX=0;entryY=0.5;entryDx=0;entryDy=0;" parent="1" source="nFDP5_dd2hBPUxauLIHV-4" target="nFDP5_dd2hBPUxauLIHV-5" edge="1">
          <mxGeometry relative="1" as="geometry" />
        </mxCell>
        <mxCell id="nFDP5_dd2hBPUxauLIHV-4" value="交易" style="ellipse;whiteSpace=wrap;html=1;aspect=fixed;" parent="1" vertex="1">
          <mxGeometry x="400" y="80" width="40" height="40" as="geometry" />
        </mxCell>
        <mxCell id="nFDP5_dd2hBPUxauLIHV-11" style="edgeStyle=orthogonalEdgeStyle;rounded=0;orthogonalLoop=1;jettySize=auto;html=1;exitX=1;exitY=0.5;exitDx=0;exitDy=0;entryX=0;entryY=0.5;entryDx=0;entryDy=0;" parent="1" source="nFDP5_dd2hBPUxauLIHV-5" target="nFDP5_dd2hBPUxauLIHV-6" edge="1">
          <mxGeometry relative="1" as="geometry" />
        </mxCell>
        <mxCell id="nFDP5_dd2hBPUxauLIHV-5" value="交易" style="ellipse;whiteSpace=wrap;html=1;aspect=fixed;" parent="1" vertex="1">
          <mxGeometry x="520" y="80" width="40" height="40" as="geometry" />
        </mxCell>
        <mxCell id="nFDP5_dd2hBPUxauLIHV-6" value="交易" style="ellipse;whiteSpace=wrap;html=1;aspect=fixed;fillColor=#dae8fc;strokeColor=#6c8ebf;dashed=1;" parent="1" vertex="1">
          <mxGeometry x="640" y="80" width="40" height="40" as="geometry" />
        </mxCell>
        <mxCell id="nFDP5_dd2hBPUxauLIHV-7" value="未知交易" style="text;html=1;strokeColor=none;fillColor=none;align=center;verticalAlign=middle;whiteSpace=wrap;rounded=0;" parent="1" vertex="1">
          <mxGeometry x="635" y="120" width="50" height="20" as="geometry" />
        </mxCell>
        <mxCell id="nFDP5_dd2hBPUxauLIHV-12" value="" style="endArrow=classic;html=1;dashed=1;" parent="1" edge="1">
          <mxGeometry width="50" height="50" relative="1" as="geometry">
            <mxPoint x="110" y="150" as="sourcePoint" />
            <mxPoint x="160" y="100" as="targetPoint" />
          </mxGeometry>
        </mxCell>
        <mxCell id="nFDP5_dd2hBPUxauLIHV-13" value="" style="endArrow=classic;html=1;dashed=1;" parent="1" edge="1">
          <mxGeometry width="50" height="50" relative="1" as="geometry">
            <mxPoint x="250" y="130" as="sourcePoint" />
            <mxPoint x="280" y="100" as="targetPoint" />
          </mxGeometry>
        </mxCell>
        <mxCell id="nFDP5_dd2hBPUxauLIHV-14" value="" style="endArrow=classic;html=1;dashed=1;" parent="1" edge="1">
          <mxGeometry width="50" height="50" relative="1" as="geometry">
            <mxPoint x="370" y="130" as="sourcePoint" />
            <mxPoint x="400" y="100" as="targetPoint" />
          </mxGeometry>
        </mxCell>
        <mxCell id="nFDP5_dd2hBPUxauLIHV-15" value="" style="endArrow=classic;html=1;dashed=1;" parent="1" edge="1">
          <mxGeometry width="50" height="50" relative="1" as="geometry">
            <mxPoint x="470" y="120" as="sourcePoint" />
            <mxPoint x="520" y="100" as="targetPoint" />
          </mxGeometry>
        </mxCell>
        <mxCell id="nFDP5_dd2hBPUxauLIHV-16" value="" style="endArrow=classic;html=1;dashed=1;" parent="1" edge="1">
          <mxGeometry width="50" height="50" relative="1" as="geometry">
            <mxPoint x="110" y="70" as="sourcePoint" />
            <mxPoint x="160" y="100" as="targetPoint" />
          </mxGeometry>
        </mxCell>
        <mxCell id="nFDP5_dd2hBPUxauLIHV-17" value="" style="endArrow=classic;html=1;dashed=1;" parent="1" edge="1">
          <mxGeometry width="50" height="50" relative="1" as="geometry">
            <mxPoint x="350" y="70" as="sourcePoint" />
            <mxPoint x="400" y="100" as="targetPoint" />
          </mxGeometry>
        </mxCell>
        <mxCell id="nFDP5_dd2hBPUxauLIHV-21" value="" style="endArrow=classic;html=1;dashed=1;" parent="1" edge="1">
          <mxGeometry width="50" height="50" relative="1" as="geometry">
            <mxPoint x="500" y="70" as="sourcePoint" />
            <mxPoint x="520" y="100" as="targetPoint" />
          </mxGeometry>
        </mxCell>
        <mxCell id="6ASJMOb9bOUWmwXRk3DR-2" value="" style="endArrow=classic;html=1;dashed=1;entryX=1;entryY=0;entryDx=0;entryDy=0;" parent="1" target="nFDP5_dd2hBPUxauLIHV-4" edge="1">
          <mxGeometry width="50" height="50" relative="1" as="geometry">
            <mxPoint x="460" y="50" as="sourcePoint" />
            <mxPoint x="450" y="20" as="targetPoint" />
          </mxGeometry>
        </mxCell>
      </root>
    </mxGraphModel>
  </diagram>
  <diagram id="3RimUOoIFT7mB7-awOvK" name="Page-2">
    <mxGraphModel dx="1248" dy="713" grid="1" gridSize="10" guides="1" tooltips="1" connect="1" arrows="1" fold="1" page="1" pageScale="1" pageWidth="827" pageHeight="1169" math="0" shadow="0">
      <root>
        <mxCell id="5epFUEFC43Ss4Awlk9QP-0" />
        <mxCell id="5epFUEFC43Ss4Awlk9QP-1" parent="5epFUEFC43Ss4Awlk9QP-0" />
        <mxCell id="5epFUEFC43Ss4Awlk9QP-2" value="" style="group" vertex="1" connectable="0" parent="5epFUEFC43Ss4Awlk9QP-1">
          <mxGeometry x="40" y="80" width="360" height="40" as="geometry" />
        </mxCell>
        <mxCell id="5epFUEFC43Ss4Awlk9QP-3" value="" style="rounded=0;whiteSpace=wrap;html=1;" vertex="1" parent="5epFUEFC43Ss4Awlk9QP-2">
          <mxGeometry width="40" height="40" as="geometry" />
        </mxCell>
        <mxCell id="5epFUEFC43Ss4Awlk9QP-4" value="" style="rounded=0;whiteSpace=wrap;html=1;" vertex="1" parent="5epFUEFC43Ss4Awlk9QP-2">
          <mxGeometry x="40" width="40" height="40" as="geometry" />
        </mxCell>
        <mxCell id="5epFUEFC43Ss4Awlk9QP-5" value="" style="rounded=0;whiteSpace=wrap;html=1;" vertex="1" parent="5epFUEFC43Ss4Awlk9QP-2">
          <mxGeometry x="80" width="40" height="40" as="geometry" />
        </mxCell>
        <mxCell id="5epFUEFC43Ss4Awlk9QP-6" value="" style="rounded=0;whiteSpace=wrap;html=1;" vertex="1" parent="5epFUEFC43Ss4Awlk9QP-2">
          <mxGeometry x="119.99999999999997" width="40" height="40" as="geometry" />
        </mxCell>
        <mxCell id="5epFUEFC43Ss4Awlk9QP-7" value="" style="rounded=0;whiteSpace=wrap;html=1;" vertex="1" parent="5epFUEFC43Ss4Awlk9QP-2">
          <mxGeometry x="200.00000000000003" width="40" height="40" as="geometry" />
        </mxCell>
        <mxCell id="5epFUEFC43Ss4Awlk9QP-8" value="" style="rounded=0;whiteSpace=wrap;html=1;" vertex="1" parent="5epFUEFC43Ss4Awlk9QP-2">
          <mxGeometry x="160" width="40" height="40" as="geometry" />
        </mxCell>
        <mxCell id="5epFUEFC43Ss4Awlk9QP-9" value="" style="rounded=0;whiteSpace=wrap;html=1;" vertex="1" parent="5epFUEFC43Ss4Awlk9QP-2">
          <mxGeometry x="239.99999999999994" width="40" height="40" as="geometry" />
        </mxCell>
        <mxCell id="5epFUEFC43Ss4Awlk9QP-10" value="" style="rounded=0;whiteSpace=wrap;html=1;fillColor=#f5f5f5;strokeColor=#666666;fontColor=#333333;" vertex="1" parent="5epFUEFC43Ss4Awlk9QP-2">
          <mxGeometry x="320" width="40" height="40" as="geometry" />
        </mxCell>
        <mxCell id="5epFUEFC43Ss4Awlk9QP-11" value="" style="rounded=0;whiteSpace=wrap;html=1;fillColor=#f5f5f5;strokeColor=#666666;fontColor=#333333;" vertex="1" parent="5epFUEFC43Ss4Awlk9QP-2">
          <mxGeometry x="280" width="40" height="40" as="geometry" />
        </mxCell>
        <mxCell id="5epFUEFC43Ss4Awlk9QP-12" value="" style="group" vertex="1" connectable="0" parent="5epFUEFC43Ss4Awlk9QP-1">
          <mxGeometry x="160" y="160" width="240" height="80" as="geometry" />
        </mxCell>
        <mxCell id="5epFUEFC43Ss4Awlk9QP-13" value="" style="rounded=0;whiteSpace=wrap;html=1;strokeColor=#6c8ebf;opacity=80;fillColor=#dae8fc;" vertex="1" parent="5epFUEFC43Ss4Awlk9QP-12">
          <mxGeometry width="160" height="80" as="geometry" />
        </mxCell>
        <mxCell id="5epFUEFC43Ss4Awlk9QP-14" value="" style="rounded=0;whiteSpace=wrap;html=1;fillColor=#d5e8d4;strokeColor=#82b366;opacity=80;" vertex="1" parent="5epFUEFC43Ss4Awlk9QP-12">
          <mxGeometry x="160.00421052631577" width="79.9957894736842" height="80" as="geometry" />
        </mxCell>
        <mxCell id="5epFUEFC43Ss4Awlk9QP-15" value="" style="rounded=0;whiteSpace=wrap;html=1;fillColor=#f8cecc;strokeColor=#b85450;" vertex="1" parent="5epFUEFC43Ss4Awlk9QP-1">
          <mxGeometry x="160" y="30" width="40" height="40" as="geometry" />
        </mxCell>
      </root>
    </mxGraphModel>
  </diagram>
</mxfile>
